<?xml version="1.0" encoding="utf-8"?>
<svg id="master-artboard" viewBox="0 0 1024 1057" version="1.1" xmlns="http://www.w3.org/2000/svg" x="0px" y="0px" style="enable-background:new 0 0 850.4 1133.9;" width="1024px" height="1057px" xmlns:xlink="http://www.w3.org/1999/xlink"><rect id="ee-background" x="0" y="0" width="1024" height="1057" style="fill: rgb(255, 255, 255); fill-opacity: 0; pointer-events: none;"/>

<defs>
		<path d="M 0 0 H 850.400024 V 1133.900024 H 0 V 0 Z" id="SVGID_1_"/>
	<linearGradient id="linearGradient2555">
      <stop style="stop-color: rgb(255, 255, 255); stop-opacity: 1;" offset="0" id="stop2557"/>
      <stop style="stop-color: rgb(255, 255, 255); stop-opacity: 0;" offset="1" id="stop2559"/>
    </linearGradient><linearGradient id="linearGradient2449" gradientUnits="userSpaceOnUse" gradientTransform="matrix(-0.5914583,0,0,0.5914584,210.0216,142.2324)" x1="-344.15295" y1="274.711" x2="-395.84943" y2="425.39993" xlink:href="#linearGradient2555"/></defs><clipPath id="SVGID_2_">
		<use style="overflow:visible;" xlink:href="#SVGID_1_"/>
	</clipPath>
<g transform="matrix(4, 0, 0, 4, -0.000005741119366575731, 16.499994258880633)"><metadata id="metadata7">
    
  </metadata><g id="layer1" transform="translate(-373.642,-318.344)">
    
    <path d="M -583.658371 328.849213 H -419.625534 A 35.487503 35.487503 0 0 1 -384.138031 364.336716 V 528.351257 A 35.487503 35.487503 0 0 1 -419.625534 563.83876 H -583.658371 A 35.487503 35.487503 0 0 1 -619.145874 528.351257 V 364.336716 A 35.487503 35.487503 0 0 1 -583.658371 328.849213 Z" transform="matrix(-1.0640456137338856, 0, 0, 1.0640456137338856, -32.12796672346536, -28.586374063911666)" id="rect1942" style="fill:#e6e6e6;fill-opacity:1;fill-rule:evenodd;stroke:none;stroke-width:0.87500000000000000;stroke-linecap:square;stroke-linejoin:miter;stroke-miterlimit:4;stroke-dasharray:0.87500000000000000, 1.75000000000000000;stroke-dashoffset:0;stroke-opacity:1"/><path d="M 407.0195007324219 341.9527587890625" style="fill: rgb(230, 230, 230); fill-opacity: 1; stroke: rgb(0, 0, 0); stroke-opacity: 1; stroke-width: 0; paint-order: fill;"/><path id="path1950" d="M 557.05665,338.89518 L 446.22721,338.89518 C 416.89033,338.89518 393.27256,362.70492 393.27256,392.28025 L 393.27256,500.40761 C 394.22216,523.49366 397.87485,508.89915 404.82758,483.3329 C 412.90814,453.61975 439.22406,427.65003 471.27219,408.1872 C 495.73352,393.33195 523.11328,383.84595 572.95174,382.94353 C 601.21656,382.43177 598.72124,346.26062 557.05665,338.89518 z" style="opacity:0.83261803;fill:url(#linearGradient2449);fill-opacity:1;fill-rule:evenodd;stroke:none;stroke-width:0.87500000000000000;stroke-linecap:square;stroke-linejoin:miter;stroke-miterlimit:4;stroke-dasharray:0.87500000000000000, 1.75000000000000000;stroke-dashoffset:0;stroke-opacity:1" transform="matrix(1.0594241164961389, 0, 0, 1.0594241164961389, -29.620784887006547, -26.019557027776326)"/>
    <text style="font-size: 92.901px; font-style: normal; font-variant-ligatures: normal; font-variant-caps: normal; font-weight: normal; font-stretch: normal; fill: rgb(0, 0, 0); fill-opacity: 1; stroke: none; font-family: Arial; white-space: pre;" x="473.46567" y="384.8064" id="text2900" transform="matrix(0.9469588252086065, 0, 0, 1.1852463651370975, -29.620785511769103, -26.019555452003345)"><tspan x="473.46567" y="384.8064" id="tspan2904" style="font-weight:bold;fill:#000000;-inkscape-font-specification:Bitstream Vera Sans Bold">You</tspan></text>
    <path d="M 434.383347 447.02417 H 567.459152 A 35.487503 35.487503 0 0 1 602.946655 482.511673 V 507.50116 A 35.487503 35.487503 0 0 1 567.459152 542.988663 H 434.383347 A 35.487503 35.487503 0 0 1 398.895844 507.50116 V 482.511673 A 35.487503 35.487503 0 0 1 434.383347 447.02417 Z" style="fill:#ff5555;fill-opacity:1;fill-rule:nonzero;stroke:none" id="rect3708"/>
    <text style="font-size: 86.353px; font-style: normal; font-variant-ligatures: normal; font-variant-caps: normal; font-weight: normal; font-stretch: normal; fill: rgb(255, 255, 255); fill-opacity: 1; stroke: none; font-family: Arial; white-space: pre;" x="441.62125" y="490.79776" id="text2908" transform="matrix(0.7418555617332458, 0, 0, 0.8572572469711305, 74.4903259277344, 101.94850553670676)"><tspan id="tspan2910" x="441.62125" y="490.79776">Down?</tspan></text>
  </g></g></svg>