<?xml version="1.0" encoding="utf-8"?>
<svg id="master-artboard" viewBox="0 0 1024 1024" xmlns="http://www.w3.org/2000/svg" width="1024px" height="1024px" version="1.1" style="shape-rendering:geometricPrecision; text-rendering:geometricPrecision; image-rendering:optimizeQuality; fill-rule:evenodd; clip-rule:evenodd" xmlns:xlink="http://www.w3.org/1999/xlink"><rect id="ee-background" x="0" y="0" width="1024" height="1024" style="fill: white; fill-opacity: 0; pointer-events: none;"/>
 
 <metadata id="CorelCorpID_0Corel-Layer"/>
<g transform="matrix(3.4271473734103592, 0, 0, 3.4271473734103592, 49.335095008460215, -10.674859128794235)"><path d="M 175 153 A 40 144 0 0 1 135 297 A 40 144 0 0 1 95 153 A 40 144 0 0 1 135 9 A 40 144 0 0 1 175 153 Z" id="e" fill="none" stroke="#000" stroke-width="5"/><use transform="rotate(60 135,153)" xlink:href="#e"/><use transform="rotate(-60 135,153)" xlink:href="#e"/></g><g transform="matrix(1.361572969926783e-7, 4.7040510177612305, -4.7040510177612305, 1.361572969926783e-7, 1531.8420852526324, -889.7489299248471)"><g id="g-1" transform="matrix(1, 0, 0, 1, 0, 0)">
	<path class="st15" d="M326.6,214.6l-20.5-16.5c-1.5-1.2-2.8-0.6-2.8,1.3v7.6h-27c-2,0-3.6,1.3-3.6,2.9v13.8c0,1.6,1.6,2.9,3.6,2.9&#10;&#9;&#9;h27v7.5c0,2,1.3,2.6,2.8,1.3l20.5-16.5C328.1,217.8,328.1,215.8,326.6,214.6z" style="fill: rgb(52, 152, 219); opacity: 1; fill-opacity: 1;"/>
</g></g></svg>